<?xml version="1.0" standalone="no"?>
<!DOCTYPE svg PUBLIC "-//W3C//DTD SVG 20010904//EN"
 "http://www.w3.org/TR/2001/REC-SVG-20010904/DTD/svg10.dtd">
<svg version="1.0" xmlns="http://www.w3.org/2000/svg"
 width="500.000000pt" height="500.000000pt" viewBox="0 0 500.000000 500.000000"
 preserveAspectRatio="xMidYMid meet">
<metadata>
Created by potrace 1.14, written by Peter Selinger 2001-2017
</metadata>
<g transform="translate(0.000000,500.000000) scale(0.100000,-0.100000)"
fill="#000000" stroke="none">
<path d="M2748 4885 c-78 -16 -159 -58 -213 -110 l-45 -44 -65 8 c-149 17
-304 -61 -377 -191 -16 -28 -31 -41 -59 -48 -88 -24 -187 -119 -210 -203 -20
-69 -14 -166 12 -222 77 -164 259 -227 423 -146 36 18 66 35 66 39 0 4 44 7
98 7 87 1 104 4 163 31 65 31 66 31 100 14 90 -46 240 -63 324 -35 91 29 139
59 205 125 110 109 155 243 133 390 -41 266 -291 439 -555 385z m205 -165
c118 -44 198 -157 198 -280 0 -103 -24 -161 -98 -232 -49 -48 -117 -77 -189
-82 -71 -4 -128 11 -193 53 -58 38 -90 39 -129 6 -63 -53 -143 -71 -222 -51
-56 15 -95 6 -127 -29 -40 -42 -70 -57 -118 -57 -52 0 -98 24 -129 65 -30 40
-30 134 0 174 28 37 70 61 121 67 56 6 81 24 94 66 13 38 44 87 69 108 60 51
164 68 244 39 53 -19 82 -8 124 49 81 110 225 152 355 104z"/>
<path d="M4428 3790 c-53 -10 -157 -64 -198 -102 -33 -32 -38 -33 -120 -34
-140 -2 -232 -50 -305 -159 -23 -36 -43 -55 -56 -55 -46 0 -142 -78 -174 -141
-32 -63 -40 -122 -26 -189 41 -191 253 -283 420 -182 39 23 58 27 123 28 60 0
91 6 142 28 l65 28 66 -27 c224 -89 466 30 549 271 31 90 12 241 -41 332 -51
89 -160 172 -258 197 -43 10 -144 13 -187 5z m219 -189 c148 -91 170 -294 45
-415 -52 -51 -97 -70 -175 -72 -71 -3 -92 3 -169 49 -54 33 -70 31 -137 -17
-39 -28 -50 -31 -110 -29 -36 0 -80 4 -98 8 -27 6 -37 2 -77 -35 -74 -68 -166
-63 -210 11 -50 84 3 185 101 194 55 6 79 22 92 66 32 106 162 168 264 126 18
-8 35 -15 40 -16 18 -4 67 31 87 63 42 68 127 107 225 102 58 -2 79 -8 122
-35z"/>
<path d="M665 3639 c-117 -58 -168 -188 -118 -300 21 -47 74 -105 107 -115 16
-5 18 -13 12 -75 -4 -38 -9 -78 -11 -89 -2 -10 -6 -45 -10 -77 -3 -32 -8 -71
-10 -88 -3 -16 -9 -68 -15 -115 -13 -110 -19 -157 -25 -200 -3 -19 -7 -55 -10
-80 -3 -25 -7 -61 -10 -80 -3 -19 -7 -55 -10 -80 -5 -43 -10 -86 -20 -160 -3
-19 -7 -55 -10 -80 -3 -25 -7 -61 -10 -80 -3 -19 -7 -53 -10 -75 -2 -22 -11
-96 -20 -165 -9 -69 -18 -143 -20 -165 -3 -22 -7 -56 -10 -75 -3 -19 -7 -55
-10 -80 -3 -25 -7 -61 -10 -80 -4 -32 -8 -65 -20 -162 -3 -21 -7 -56 -10 -78
-3 -22 -7 -58 -10 -80 -3 -22 -7 -57 -10 -77 -2 -21 -12 -96 -20 -168 -9 -71
-17 -141 -20 -155 -2 -14 -6 -50 -10 -81 -3 -31 -7 -65 -9 -75 -2 -11 -7 -50
-12 -89 -4 -38 -8 -73 -10 -77 -1 -5 -2 -24 -3 -43 l-1 -35 -89 0 c-49 0 -101
-4 -114 -9 -42 -16 -53 -87 -20 -123 15 -17 135 -18 2255 -18 2225 0 2238 0
2258 20 32 32 30 75 -6 107 -23 21 -35 23 -135 23 -60 0 -109 3 -109 8 0 4 -5
35 -10 69 -6 34 -12 75 -14 90 -2 15 -11 78 -20 138 -10 61 -19 121 -21 135
-6 40 -17 114 -20 130 -2 8 -6 38 -9 65 -4 28 -9 62 -11 78 -12 71 -19 115
-30 194 -4 30 -43 291 -50 333 -2 14 -11 72 -20 130 -8 58 -18 121 -20 140 -3
19 -12 80 -21 135 -8 55 -17 111 -19 125 -3 14 -7 50 -11 80 -3 30 -8 58 -10
61 -2 3 -6 33 -10 67 -6 60 -6 62 26 89 40 34 80 115 80 165 0 93 -54 179
-138 219 -42 21 -54 21 -632 22 l-589 0 -55 -27 c-87 -43 -137 -128 -130 -223
3 -53 46 -133 85 -162 19 -14 28 -28 25 -39 -3 -9 -8 -39 -11 -67 -3 -27 -8
-61 -10 -75 -7 -41 -24 -152 -30 -195 -3 -22 -15 -98 -26 -168 -11 -71 -22
-151 -25 -177 -3 -27 -9 -61 -14 -77 l-8 -28 -2 35 c-1 19 -3 42 -5 51 -1 8
-6 42 -9 75 -4 32 -9 70 -11 84 -2 14 -6 52 -10 85 -4 32 -8 66 -10 75 -1 8
-6 42 -9 75 -4 33 -9 71 -11 85 -2 14 -6 48 -10 75 -6 54 -9 76 -24 200 -6 44
-13 103 -16 130 -4 28 -8 61 -10 75 -2 14 -7 50 -10 80 -3 30 -8 66 -10 80 -2
14 -7 50 -10 80 -3 30 -8 66 -10 80 -2 14 -7 50 -10 80 -3 30 -8 66 -10 80 -2
14 -7 50 -10 80 -3 30 -8 67 -11 82 -4 23 2 31 35 52 74 47 117 136 106 221
-9 72 -62 147 -128 179 l-50 26 -826 -1 c-801 0 -827 -1 -866 -20z m1668 -138
c4 0 16 -10 27 -21 30 -30 27 -83 -6 -109 -27 -21 -33 -21 -824 -21 -763 0
-798 1 -818 19 -36 31 -38 72 -5 107 l28 30 795 -2 c437 -1 798 -2 803 -3z
m-92 -333 c1 -16 2 -31 3 -35 1 -5 6 -39 10 -77 4 -38 9 -79 11 -90 2 -12 6
-41 9 -66 3 -25 13 -101 21 -170 9 -69 18 -138 20 -155 10 -96 17 -152 20
-165 2 -8 7 -44 10 -80 4 -36 8 -72 10 -80 2 -8 6 -44 10 -80 3 -36 8 -72 10
-80 2 -8 7 -44 10 -80 4 -36 8 -72 10 -80 2 -8 6 -44 10 -80 4 -36 8 -72 10
-80 2 -8 6 -44 9 -80 4 -36 9 -76 11 -90 2 -14 7 -43 9 -65 3 -22 10 -78 17
-125 6 -47 12 -98 14 -115 5 -53 16 -139 20 -165 2 -14 7 -47 10 -75 9 -89 35
-309 41 -345 2 -19 7 -51 9 -70 2 -19 11 -93 20 -165 8 -72 18 -149 21 -172
l6 -43 -1072 0 -1072 0 6 28 c5 27 14 97 21 162 5 42 34 282 40 325 3 17 7 50
9 75 3 25 10 79 16 120 6 41 13 98 16 125 5 59 12 117 18 154 3 14 7 51 11 81
4 30 8 66 10 80 2 14 6 52 10 85 3 33 7 67 10 75 2 8 6 42 10 75 3 33 8 74 10
90 3 17 9 68 15 115 6 47 13 101 15 120 3 19 9 76 15 125 11 93 17 135 26 195
3 19 7 53 9 75 5 51 35 292 40 325 2 14 6 52 10 85 3 33 8 69 10 80 4 21 14
97 20 151 5 53 16 138 21 164 l5 25 704 0 705 0 1 -27z m1744 -620 c27 -32 25
-71 -5 -102 -19 -19 -40 -20 -572 -21 -304 0 -566 3 -582 7 -15 4 -34 15 -42
25 -27 36 -11 97 29 112 12 5 275 8 585 7 l564 -1 23 -27z m-91 -295 c3 -10 8
-38 11 -63 3 -25 12 -85 20 -135 8 -49 17 -110 20 -135 3 -25 8 -56 10 -70 8
-43 14 -82 29 -190 21 -143 42 -283 72 -480 14 -91 27 -181 30 -200 7 -53 16
-113 20 -135 2 -11 13 -80 24 -155 11 -74 22 -146 24 -160 2 -14 7 -47 11 -73
4 -27 8 -59 11 -70 2 -12 7 -46 10 -74 l7 -53 -717 0 c-394 0 -716 3 -716 6 0
3 -18 151 -40 328 -30 231 -39 338 -34 381 3 33 7 62 9 65 2 3 6 28 9 55 4 28
9 64 12 80 3 17 7 41 9 55 2 14 11 75 20 135 9 61 18 121 20 135 7 48 17 115
21 135 2 11 6 39 9 62 6 54 15 112 20 143 3 14 7 43 10 65 4 22 10 65 15 95 5
30 11 71 14 90 6 44 19 133 22 143 1 4 2 14 3 22 1 13 64 15 505 15 472 0 505
-1 510 -17z"/>
<path d="M1058 2276 c-15 -11 -18 -30 -18 -124 0 -103 2 -112 22 -126 12 -9
37 -16 55 -16 l33 0 0 -60 0 -60 -39 0 c-63 0 -71 -15 -71 -139 0 -129 6 -138
90 -140 25 -1 26 -4 28 -61 1 -33 -2 -59 -6 -59 -4 1 -24 1 -44 0 -61 -2 -68
-17 -68 -141 0 -137 1 -138 142 -136 127 2 131 5 133 123 2 125 -10 152 -70
153 -44 0 -51 9 -50 65 l0 50 43 6 c54 7 73 26 76 75 2 31 7 40 24 42 24 4 23
6 24 -102 0 -48 4 -63 23 -82 13 -13 36 -24 50 -24 23 0 25 -4 25 -40 0 -67
20 -78 139 -78 134 1 138 5 136 148 -2 135 2 132 -163 132 -91 0 -112 -15
-112 -79 0 -39 -2 -43 -24 -43 -15 0 -27 7 -30 18 -2 9 -4 91 -3 182 l2 165
28 3 c25 3 27 1 27 -32 0 -63 23 -75 139 -74 55 1 104 4 109 7 18 12 31 49 26
75 -3 18 0 28 12 33 25 9 30 -10 29 -102 -2 -81 7 -109 31 -104 5 1 21 1 37 0
25 -1 27 -4 27 -41 0 -66 25 -80 141 -80 75 0 101 4 113 16 20 19 18 11 21
124 4 138 2 140 -135 140 -101 0 -110 -2 -124 -22 -9 -12 -16 -39 -16 -60 0
-36 -2 -38 -30 -38 l-31 0 2 85 c2 93 -13 125 -55 125 -18 0 -21 6 -22 46 -1
66 -16 74 -139 74 -121 0 -135 -9 -135 -83 0 -46 -1 -47 -30 -47 -44 0 -69
-30 -68 -82 1 -112 0 -118 -26 -118 -20 0 -24 4 -21 27 4 40 -14 82 -38 88
-12 2 -38 6 -57 7 -33 3 -34 4 -35 48 -2 64 3 79 26 73 10 -3 34 -2 53 1 44 8
53 34 50 141 -2 104 -1 101 -20 119 -20 21 -210 22 -236 2z"/>
<path d="M3339 1979 c-14 -26 5 -69 31 -69 41 0 68 50 41 74 -25 22 -58 20
-72 -5z"/>
<path d="M3373 1879 c-13 -17 -12 -104 2 -104 12 0 23 63 15 94 -4 19 -7 21
-17 10z"/>
<path d="M2925 1740 c-15 -17 -16 -24 -7 -45 11 -25 34 -31 66 -19 23 9 21 61
-3 74 -27 14 -35 13 -56 -10z"/>
<path d="M3778 1753 c-23 -6 -34 -49 -18 -68 27 -33 80 -11 80 32 0 18 -29 47
-42 42 -2 -1 -11 -3 -20 -6z"/>
<path d="M3036 1723 c-20 -21 0 -28 70 -26 l76 2 54 -51 c39 -36 58 -48 65
-41 8 8 -6 27 -47 66 l-58 55 -77 0 c-42 0 -80 -2 -83 -5z"/>
<path d="M3498 1673 c-50 -49 -64 -73 -40 -73 4 0 31 23 60 50 45 43 59 50 90
49 84 -3 112 1 112 16 0 12 -15 15 -82 14 l-82 -1 -58 -55z"/>
<path d="M3306 1469 c-86 -13 -100 -29 -43 -48 73 -25 244 -14 254 15 9 28
-115 47 -211 33z"/>
<path d="M3230 1371 c0 -27 4 -31 41 -41 69 -19 196 -14 236 9 23 12 26 63 4
57 -88 -27 -195 -27 -265 0 -13 5 -16 -1 -16 -25z"/>
<path d="M2920 1325 c-12 -32 -4 -52 22 -59 27 -6 54 8 60 32 13 49 -64 74
-82 27z"/>
<path d="M3762 1338 c-18 -18 -15 -43 8 -63 17 -15 24 -16 45 -7 43 20 28 82
-20 82 -12 0 -26 -5 -33 -12z"/>
<path d="M3052 1319 c-12 -5 -22 -13 -22 -18 0 -13 83 -8 87 5 5 15 -38 23
-65 13z"/>
<path d="M3657 1323 c-30 -8 -13 -28 26 -31 28 -2 37 1 37 12 0 9 -4 16 -9 16
-5 0 -15 2 -23 4 -7 2 -21 2 -31 -1z"/>
<path d="M3227 1290 c-9 -34 34 -53 125 -58 73 -4 167 11 169 27 0 3 2 16 5
29 2 12 3 22 1 22 -1 0 -18 -5 -37 -10 -48 -14 -189 -15 -223 -1 -36 14 -34
15 -40 -9z"/>
<path d="M3227 1206 c-9 -22 14 -44 58 -55 63 -16 233 -4 236 18 0 3 2 16 5
29 4 22 2 23 -28 15 -41 -10 -204 -11 -239 -1 -19 6 -28 4 -32 -6z"/>
<path d="M3239 971 l-53 -51 -76 0 c-62 0 -77 -3 -77 -15 0 -12 16 -15 85 -15
l84 0 55 56 c39 39 52 59 45 66 -8 8 -27 -5 -63 -41z"/>
<path d="M3450 1007 c0 -7 24 -36 53 -65 l53 -52 82 0 c66 0 82 3 82 15 0 12
-15 15 -78 15 l-78 0 -49 50 c-51 51 -65 60 -65 37z"/>
<path d="M2926 934 c-20 -20 -20 -38 0 -59 21 -21 53 -16 70 10 12 18 11 24
-2 43 -18 26 -46 28 -68 6z"/>
<path d="M3766 934 c-30 -30 -13 -74 29 -74 27 0 45 18 45 45 0 42 -44 59 -74
29z"/>
<path d="M3365 828 c-8 -22 0 -93 10 -93 12 0 22 51 17 83 -5 24 -20 30 -27
10z"/>
<path d="M3351 693 c-12 -8 -21 -23 -21 -33 0 -43 73 -59 85 -19 15 47 -25 80
-64 52z"/>
</g>
</svg>
